<?xml version="1.0" encoding="utf-8"?>
<!-- Generator: Adobe Illustrator 22.1.0, SVG Export Plug-In . SVG Version: 6.00 Build 0)  -->
<svg version="1.1" id="Layer_1" xmlns="http://www.w3.org/2000/svg" xmlns:xlink="http://www.w3.org/1999/xlink" x="0px" y="0px"
	 viewBox="0 0 200 52" style="enable-background:new 0 0 200 52;" xml:space="preserve" width="200px" height="52px">
<style type="text/css">
	.st0{fill:#FFFFFF;}
</style>
<g>
	<path class="st0" d="M49.3,12.8l16.6,16.6l4-4L52.8,8.3c-9.2-9.2-24.2-9.2-33.4,0l-10,10l1.6,1.6l2.4,2.5l12.8,12.8l0,0
		c0,0,0,0,0.1,0.1c5.1,5.1,13.4,5.1,18.6,0c1.9-1.9,3.1-4.3,3.6-6.8l5.2,5.2l-5.5,5.5c-7.3,7.3-19,7.3-26.1,0L5.4,22.4l-4,4
		l17.1,17.1c9.2,9.2,24.2,9.2,33.4,0l10-10l-1.8-1.8l-2.4-2.4L45,16.6l0,0l0,0c-5.1-5.1-13.4-5.1-18.6,0c-1.9,1.9-3.1,4.3-3.6,6.8
		l-5.2-5.2l5.5-5.5C30.2,5.6,42,5.6,49.3,12.8 M41.2,20.4c3.1,3.1,3.1,8.2,0,11.3c-3.1,3.1-8.2,3.1-11.3,0c-3.1-3.1-3.1-8.2,0-11.3
		S38.1,17.2,41.2,20.4"/>
	<path class="st0" d="M76.3,11.1h3.6c0.3,0,0.6,0.3,0.6,0.6v23.3h-4.3V11.1H76.3z"/>
	<path class="st0" d="M82.4,25.9c0-5.3,4.2-9.7,9.5-9.7s9.5,4.2,9.5,9.7c0,5.3-4.3,9.5-9.5,9.5C86.6,35.5,82.4,31.2,82.4,25.9
		 M97.3,25.9c0-3.1-2.4-5.6-5.3-5.6c-3.1,0-5.3,2.5-5.3,5.6s2.2,5.5,5.3,5.5C94.9,31.5,97.3,29,97.3,25.9"/>
	<path class="st0" d="M117.9,32.7c-1.3,1.8-3.6,2.8-5.9,2.8c-4.5,0-9.1-3.6-9.1-9.5c0-6.1,4.5-9.7,9.1-9.7c2.4,0,4.6,1,5.9,2.7v-2.4
		h3.6c0.3,0,0.6,0.3,0.6,0.6v17.2c0,5.2-3.3,9.4-9.5,9.4c-4.8,0-7.7-2.2-9.5-5.3l3.7-2.2c1.3,2.5,2.8,3.7,5.8,3.7
		c3.3,0,5.2-2.5,5.2-5.3v-1.9H117.9z M118.1,25.9c0-3.1-2.4-5.6-5.5-5.6c-3.1,0-5.5,2.5-5.5,5.6c0,3.3,2.4,5.8,5.5,5.8
		C115.8,31.5,118.1,29,118.1,25.9"/>
	<path class="st0" d="M124,25.9c0-5.3,4.2-9.7,9.5-9.7c5.3,0,9.5,4.2,9.5,9.7c0,5.3-4.3,9.5-9.5,9.5C128.3,35.5,124,31.2,124,25.9
		 M138.9,25.9c0-3.1-2.4-5.6-5.3-5.6c-3.1,0-5.3,2.5-5.3,5.6s2.2,5.5,5.3,5.5C136.6,31.5,138.9,29,138.9,25.9"/>
	<polygon class="st0" points="142.9,16.6 147.2,16.6 151.2,29.4 155.9,16.6 160.1,16.6 164.6,29.4 168.9,16.6 173.2,16.6 
		166.6,35.1 162.6,35.1 158,22.3 153.1,35.1 149,35.1 	"/>
	<path class="st0" d="M174.8,16.6h3.6c0.3,0,0.6,0.3,0.6,0.6v17.8h-4.3V16.6H174.8z"/>
	<path class="st0" d="M181.5,11.1h3.6c0.3,0,0.6,0.3,0.6,0.6v13.8l7.9-8.9h5.1l-7.1,8l7.4,10.4h-4.8l-5.5-7.9l-3,3.3v4.8h-4.3V11.1
		H181.5z"/>
	<path class="st0" d="M179.1,13.2c0,1.2-0.9,2.2-2.2,2.2c-1.2,0-2.2-0.9-2.2-2.2c0-1.2,0.9-2.2,2.2-2.2
		C178.2,11.1,179.1,12,179.1,13.2"/>
</g>
</svg>
